<svg width="300" height="300" viewBox="0 0 300 300" fill="none" xmlns="http://www.w3.org/2000/svg">
<path fill-rule="evenodd" clip-rule="evenodd" d="M150 0C67.1573 0 0 67.1573 0 150C0 232.843 67.1573 300 150 300C232.843 300 300 232.843 300 150C300 67.1573 232.843 0 150 0ZM284.429 176.868C278.15 208.047 261.398 235.924 236.845 256.044C217.29 272.057 194.302 282.161 169.381 285.746C162.102 286.789 158.343 287.049 149.826 287.049C141.33 287.049 137.615 286.789 130.271 285.746C110.281 282.921 91.1176 275.642 74.2134 264.474C46.9886 246.484 26.8904 219.215 17.9386 188.101C14.5491 176.325 12.9196 165.613 12.5936 152.902C12.4415 147.188 12.724 143.038 13.6148 137.91C17.9821 112.706 35.6467 92.217 59.7645 84.3733C66.6956 82.1353 72.9532 81.1576 80.5144 81.1358C91.6608 81.1141 101.417 83.3955 111.194 88.2843C132.118 98.7787 146.306 119.464 148.5 142.69C148.631 144.059 148.826 147.688 148.957 150.73C149.065 153.772 149.304 157.378 149.5 158.726C151.607 174.63 158.843 189.079 170.272 200.16C181.331 210.872 194.563 217.238 210.446 219.433C213.684 219.867 224.852 219.802 228.154 219.324C242.06 217.26 253.597 212.111 264.114 203.289C272.739 196.054 279.54 186.58 283.908 175.738C284.603 174 285.189 172.696 285.189 172.849C285.189 173.001 284.842 174.804 284.429 176.868ZM240.887 155.293C240.083 158.334 239.344 159.986 237.649 162.55C235.216 166.243 231.891 168.959 227.611 170.763C225.221 171.784 223.657 172.175 220.984 172.436C214.075 173.066 207.535 170.654 202.711 165.678C197.974 160.811 195.802 154.728 196.367 147.818C197.105 138.497 203.841 130.566 213.162 127.981C215.118 127.438 215.683 127.372 218.811 127.394C221.636 127.394 222.635 127.481 224.135 127.85C232.695 130.023 239.214 136.715 241.06 145.298C241.647 147.992 241.56 152.772 240.887 155.293ZM102.221 146.471C99.07 131.457 82.4048 123.396 68.6729 130.262C66.3915 131.392 64.7402 132.587 62.763 134.499C54.5934 142.408 53.268 154.836 59.569 164.418C61.0031 166.613 63.9146 169.502 66.2177 171.023C73.1054 175.564 82.231 176.151 89.5315 172.501C96.3757 169.111 101.091 162.788 102.438 155.206C102.807 153.141 102.699 148.731 102.221 146.471Z" fill="#5A86F0"/>
</svg>
